<svg width="50" height="50" viewBox="0 0 50 50" fill="none" xmlns="http://www.w3.org/2000/svg">
<g clip-path="url(#clip0_5_135)">
<path d="M49.1527 40.6785C49.1527 45.8308 38.1533 50 24.5778 50C11.002 50 0.00256348 45.8308 0.00256348 40.6785C0.00256348 38.1106 2.73142 35.7803 7.16351 34.0939C7.83423 35.0699 8.58838 35.9857 9.4175 36.8313C9.57003 36.9922 9.72266 37.1447 9.88358 37.2886C10.1887 37.5937 10.5023 37.8734 10.8243 38.1446C10.8411 38.1618 10.8495 38.1785 10.8666 38.1869C11.1546 38.433 11.4426 38.6702 11.7477 38.8903C11.8172 38.9494 11.8908 39.0032 11.9682 39.0513C12.2734 39.2885 12.587 39.509 12.9089 39.7208C12.955 39.7524 13.0031 39.7806 13.0527 39.8054C13.3071 39.9835 13.5611 40.1362 13.824 40.2888C14.0357 40.4241 14.2562 40.5427 14.4766 40.6614C14.7731 40.8311 15.0781 40.9833 15.3917 41.1275C15.6374 41.2545 15.9003 41.3648 16.1543 41.4835C16.5441 41.6528 16.9424 41.8053 17.3409 41.9495C17.561 42.0258 17.7731 42.1021 17.9932 42.17C18.2984 42.2715 18.6035 42.3649 18.9171 42.4496C18.9351 42.4604 18.9552 42.466 18.9763 42.4664C18.9831 42.4729 18.9923 42.476 19.0018 42.4748C19.2051 42.5344 19.4168 42.5851 19.6289 42.6273C19.636 42.6357 19.6454 42.6418 19.6559 42.6448C19.6664 42.6479 19.6776 42.6478 19.688 42.6445C19.8999 42.7045 20.115 42.7525 20.3323 42.7884C20.412 42.8136 20.4944 42.8306 20.5779 42.8394C20.8068 42.8818 21.0356 42.9241 21.2729 42.9581C21.924 43.0657 22.5802 43.1392 23.2389 43.1782C23.3659 43.1866 23.4929 43.1954 23.6116 43.1954C24.2551 43.2289 24.9 43.2289 25.5436 43.1954C25.6622 43.1954 25.7893 43.1866 25.9166 43.1782C26.5754 43.1392 27.2317 43.0657 27.8827 42.9581C28.12 42.9241 28.3488 42.8818 28.5773 42.8394C28.6608 42.8306 28.7432 42.8136 28.8234 42.7884C29.0405 42.7525 29.2555 42.7044 29.4672 42.6445C29.4886 42.6511 29.5118 42.6445 29.5268 42.6273C29.7378 42.5856 29.9468 42.5347 30.1534 42.4748C30.158 42.4754 30.1627 42.4749 30.1672 42.4735C30.1716 42.472 30.1756 42.4696 30.179 42.4664C30.2 42.466 30.2202 42.4603 30.2386 42.4496C30.552 42.3649 30.8569 42.2715 31.1621 42.17C31.3825 42.1021 31.5942 42.0258 31.8147 41.9495C32.2129 41.8053 32.6111 41.6527 33.001 41.4834C33.255 41.3648 33.5179 41.2546 33.7635 41.1275C34.077 40.9833 34.3822 40.8311 34.679 40.6614C34.8991 40.5428 35.1196 40.4241 35.3313 40.2887C35.594 40.1362 35.8481 39.9835 36.1025 39.8053C36.1525 39.7805 36.2007 39.7522 36.2467 39.7208C36.5687 39.509 36.8823 39.2885 37.187 39.0513C37.2644 39.0032 37.3382 38.9494 37.4075 38.8903C37.7127 38.6702 38.0007 38.4329 38.2886 38.1869C38.3058 38.1785 38.3142 38.1618 38.3314 38.1446C38.6533 37.8734 38.9668 37.5938 39.2716 37.2886C39.433 37.1448 39.5851 36.9922 39.7378 36.8313C40.5669 35.9857 41.3212 35.0698 41.9921 34.094C46.4238 35.7804 49.1527 38.1106 49.1527 40.6786V40.6785Z" fill="#71C285"/>
<path d="M43.2208 40.6785C43.2208 37.4023 34.8738 34.7466 24.5778 34.7466C14.2813 34.7466 5.93445 37.4023 5.93445 40.6785C5.93445 43.9544 14.2813 46.6104 24.5778 46.6104C34.8738 46.6104 43.2208 43.9544 43.2208 40.6785Z" fill="#4C8056"/>
<path d="M44.8816 28.0773C44.8136 28.2978 44.7462 28.5179 44.6699 28.7384C44.5342 29.179 44.373 29.6111 44.1953 30.0349C44.1106 30.2467 44.0172 30.45 43.9241 30.6621C43.8329 30.8705 43.7369 31.0768 43.6361 31.2808C43.4835 31.6111 43.3138 31.9331 43.1361 32.255C43.0257 32.4587 42.9072 32.6621 42.7885 32.8654C42.5429 33.2804 42.2801 33.6957 41.9921 34.094C41.3211 35.0698 40.5668 35.9856 39.7377 36.8312C39.5851 36.9838 39.433 37.1364 39.2715 37.2886H33.0517L28.8146 29.6619L33.0517 22.0352H41.5259L44.8816 28.0773Z" fill="white"/>
<path d="M39.2715 37.2886C38.9669 37.5854 38.6532 37.8734 38.3314 38.1446C38.3142 38.1618 38.3058 38.1785 38.2886 38.1869C38.0005 38.433 37.7126 38.6702 37.4075 38.8903C37.3381 38.9494 37.2644 39.0032 37.187 39.0513C36.8822 39.2886 36.5687 39.509 36.2466 39.7208C36.2005 39.7524 36.1521 39.7806 36.1025 39.8054C35.8545 39.9806 35.597 40.142 35.3312 40.2888C35.1195 40.4241 34.899 40.5427 34.6789 40.6614C34.3738 40.8224 34.0686 40.9833 33.7634 41.1275C33.5094 41.2545 33.2638 41.3648 33.001 41.4835C32.6111 41.6528 32.2129 41.8053 31.8146 41.9495C31.6025 42.0342 31.3824 42.1021 31.162 42.17C30.8569 42.2721 30.549 42.3653 30.2385 42.4496C30.2202 42.4604 30.2 42.466 30.179 42.4664L33.0517 37.2886H39.2715ZM18.9762 42.4664C18.9554 42.4661 18.935 42.4603 18.9171 42.4496C18.6065 42.3653 18.2985 42.2721 17.9933 42.17C17.7731 42.1021 17.5526 42.0343 17.341 41.9495C16.9423 41.8053 16.5441 41.6527 16.1542 41.4834C15.8918 41.3648 15.6457 41.2546 15.3917 41.1275C15.0865 40.9833 14.7813 40.8224 14.4767 40.6614C14.2562 40.5428 14.0357 40.4241 13.824 40.2887C13.5583 40.1417 13.3008 39.9803 13.0526 39.8053C13.0031 39.7806 12.955 39.7524 12.9089 39.7208C12.5869 39.509 12.2734 39.2886 11.9682 39.0513C11.8908 39.0032 11.8171 38.9494 11.7477 38.8903C11.4425 38.6702 11.1546 38.4329 10.8666 38.1869C10.8494 38.1785 10.841 38.1618 10.8242 38.1446C10.5023 37.8734 10.1887 37.5854 9.88354 37.2886H16.1035L18.9762 42.4664Z" fill="#35495E"/>
<path d="M20.3406 29.6619L16.1035 37.2886H9.88352C9.72259 37.1364 9.57006 36.9839 9.41743 36.8313C8.58832 35.9858 7.83416 35.0699 7.16345 34.094C6.87508 33.6957 6.61269 33.2804 6.36661 32.8654C6.24797 32.6621 6.12932 32.4587 6.01907 32.255C5.84135 31.9331 5.67192 31.6111 5.51939 31.2808C5.4183 31.0769 5.32215 30.8706 5.23103 30.6621C5.13797 30.45 5.04481 30.2467 4.96014 30.0349C4.78203 29.6111 4.6211 29.179 4.48527 28.7384C4.40939 28.5179 4.34143 28.2978 4.27356 28.0773L7.62914 22.0352H16.1035L20.3406 29.6619Z" fill="white"/>
<path d="M7.62919 22.0352L4.2736 28.0773C3.09874 24.135 3.09874 19.9357 4.2736 15.9934L7.62919 22.0352Z" fill="#35495E"/>
<path d="M20.3406 14.4084L16.1035 22.0352H7.62914L4.27356 15.9935C5.31068 12.4873 7.24434 9.31223 9.88362 6.78177H16.1035L20.3406 14.4084Z" fill="white"/>
<path d="M33.0516 22.0352L28.8146 29.6619H20.3406L16.1035 22.0352L20.3406 14.4085H28.8146L33.0516 22.0352Z" fill="#35495E"/>
<path d="M33.0516 37.2886L30.1789 42.4664C30.1756 42.4696 30.1715 42.472 30.1671 42.4735C30.1627 42.4749 30.158 42.4754 30.1534 42.4748C29.9465 42.5337 29.7374 42.5846 29.5266 42.6273C29.5195 42.6357 29.51 42.6417 29.4995 42.6448C29.4889 42.6478 29.4777 42.6477 29.4672 42.6445C29.2555 42.7037 29.0434 42.7461 28.8233 42.7884C28.7432 42.8136 28.6608 42.8307 28.5772 42.8394C28.3488 42.8902 28.1115 42.9241 27.8827 42.9581C27.2316 43.0657 26.5754 43.1392 25.9167 43.1782C25.798 43.1866 25.6706 43.1954 25.5436 43.1954C24.9 43.2289 24.2551 43.2289 23.6115 43.1954C23.4846 43.1954 23.3575 43.1866 23.2389 43.1782C22.5801 43.1392 21.9239 43.0658 21.2729 42.9581C21.044 42.9241 20.8068 42.8902 20.5779 42.8394C20.4943 42.8307 20.4119 42.8136 20.3322 42.7884C20.1117 42.746 19.9 42.7037 19.688 42.6445C19.6775 42.6478 19.6663 42.6479 19.6558 42.6448C19.6453 42.6418 19.6359 42.6357 19.6288 42.6273C19.4179 42.5847 19.2087 42.5338 19.0017 42.4748C18.9971 42.4754 18.9924 42.4749 18.988 42.4735C18.9836 42.472 18.9796 42.4696 18.9762 42.4664L16.1035 37.2886L20.3406 29.6619H28.8146L33.0516 37.2886ZM44.8816 15.9934L41.5259 22.0352H33.0517L28.8145 14.4085L33.0516 6.78177H39.2715C41.9108 9.3122 43.8445 12.4872 44.8816 15.9934Z" fill="white"/>
<path d="M39.2715 6.78187H33.0517L30.179 1.60441C33.599 2.5332 36.7275 4.3146 39.2715 6.78187ZM18.9762 1.60441L16.1035 6.78187H9.88354C12.4277 4.31467 15.5562 2.53327 18.9762 1.60441Z" fill="#35495E"/>
<path d="M33.0516 6.78187L28.8146 14.4084H20.3406L16.1035 6.78187L18.9761 1.60441C22.6427 0.598518 26.5124 0.598518 30.1789 1.60441L33.0516 6.78187Z" fill="white"/>
<path d="M45.7632 22.0352C45.7664 24.0815 45.4694 26.1172 44.8817 28.0773L41.526 22.0352L44.8817 15.9935C45.4694 17.9535 45.7663 19.989 45.7632 22.0352Z" fill="#35495E"/>
<path d="M46.5935 21.2047V21.1132C46.5851 20.9175 46.5756 20.7219 46.5603 20.5449C46.5424 20.2336 46.5164 19.9212 46.4757 19.5634C46.4417 19.2651 46.4062 18.9611 46.3596 18.6872C46.3139 18.3676 46.2586 18.0391 46.1899 17.7465C46.0632 17.0764 45.8994 16.4139 45.6994 15.7619L45.6952 15.7466C45.6239 15.517 45.5536 15.2882 45.4835 15.0849C45.3402 14.6226 45.1737 14.1678 44.9849 13.7222C44.9129 13.5441 44.8365 13.3714 44.7595 13.1959L44.7027 13.0688C44.6039 12.8442 44.5055 12.629 44.4078 12.4361C44.2469 12.0874 44.069 11.7479 43.8833 11.4122C43.7653 11.1962 43.6437 10.9824 43.5183 10.7706C43.2784 10.3732 43.0308 9.97486 42.7699 9.60106C42.5944 9.34706 42.4182 9.09874 42.2357 8.85725C41.6624 8.08104 41.0344 7.3467 40.3565 6.6598C40.1871 6.4813 40.0174 6.31158 39.8667 6.1777C39.5601 5.8786 39.2438 5.58447 38.9204 5.31329C38.895 5.28868 38.8686 5.26503 38.8414 5.2424C38.5322 4.97757 38.2143 4.72311 37.8881 4.47945C37.8182 4.42274 37.7453 4.3699 37.6696 4.32116C37.3621 4.08508 37.0458 3.86065 36.7214 3.64834C36.6646 3.60906 36.6056 3.57313 36.5446 3.54073C36.302 3.37031 36.0503 3.21328 35.7906 3.07035C35.5693 2.92807 35.3382 2.80259 35.0536 2.64654C34.745 2.48415 34.4372 2.32195 34.145 2.18387C33.9028 2.06259 33.6671 1.95615 33.3417 1.8086C32.9351 1.63234 32.5197 1.47365 32.1325 1.33401C31.8987 1.23978 31.656 1.16468 31.4333 1.09672C31.1313 0.995518 30.8267 0.902552 30.5197 0.817925C30.4709 0.799591 30.4208 0.78519 30.3698 0.774861C30.1528 0.714513 29.946 0.661879 29.7282 0.618815L29.6962 0.611979C29.4897 0.553935 29.2804 0.506673 29.0691 0.470385C28.9547 0.435317 28.8375 0.40984 28.7189 0.394217C28.4904 0.346088 28.2601 0.307127 28.0285 0.277426C27.3485 0.164483 26.6631 0.0874273 25.975 0.0465792C25.8377 0.0374 25.6894 0.029002 25.6142 0.0305644C25.3876 0.0118154 25.1709 0.0118154 25.0012 0.0125966C24.7392 -0.0041887 24.4763 -0.0041887 24.2142 0.0125966C23.9869 0.0125966 23.7684 0.0125966 23.6123 0.0297832C23.4658 0.0297832 23.3174 0.0388648 23.1889 0.0484346C22.49 0.0892778 21.7938 0.167084 21.1031 0.281528C20.8853 0.313557 20.661 0.34754 20.4421 0.394022C20.3502 0.403592 20.2595 0.422341 20.1713 0.450074C19.9279 0.496653 19.6933 0.545088 19.4591 0.610319L19.4297 0.617936C19.2246 0.659797 19.021 0.708914 18.8194 0.765194C18.7722 0.77455 18.726 0.788213 18.6813 0.806012C18.3567 0.890675 18.0408 0.989889 17.7491 1.089C17.5053 1.16341 17.2627 1.239 17.0559 1.32288C16.6417 1.47277 16.2263 1.63146 15.7426 1.84238C15.4943 1.95497 15.2586 2.06171 15.0324 2.17537C14.7238 2.32117 14.4163 2.48288 14.0529 2.67437C13.8232 2.79907 13.5917 2.92875 13.4188 3.03714C13.143 3.19004 12.8751 3.35691 12.6163 3.53712C12.5583 3.56846 12.5015 3.60284 12.4469 3.63975C12.1198 3.85353 11.8009 4.07966 11.491 4.31764C11.409 4.37135 11.3297 4.42936 11.2537 4.49117C10.9311 4.72543 10.6239 4.97679 10.3215 5.23693C10.2951 5.25978 10.2692 5.28273 10.2452 5.30675C9.87603 5.61836 9.57155 5.89988 9.30575 6.16344C9.13593 6.32174 8.98028 6.48003 8.81935 6.64145C8.13842 7.33029 7.50719 8.06653 6.93038 8.84465C6.74708 9.08831 6.56931 9.33608 6.39721 9.58778C6.13199 9.96725 5.88454 10.3655 5.63455 10.774C5.51315 10.9814 5.39426 11.1902 5.27793 11.4004C5.08947 11.7391 4.91174 12.0783 4.76067 12.4062C4.65316 12.6214 4.55512 12.8365 4.456 13.0612L4.39907 13.1882C4.32203 13.3637 4.24576 13.5365 4.17858 13.7028C3.99549 14.131 3.83518 14.5687 3.69833 15.0139C3.60657 15.2501 3.52838 15.4915 3.46416 15.7367L3.45928 15.7542C3.26206 16.3975 3.10017 17.051 2.97434 17.7119C2.90071 18.0315 2.84583 18.36 2.80502 18.6567C2.7642 18.9535 2.72035 19.2575 2.67953 19.6008C2.64331 19.9136 2.61704 20.226 2.59907 20.5185C2.58374 20.7142 2.57466 20.9099 2.56626 21.1056V21.1971C2.55747 21.476 2.54907 21.7472 2.54907 22.0275C2.54907 22.3083 2.55747 22.5796 2.56626 22.8584V22.9522C2.57534 23.1471 2.58384 23.342 2.59907 23.5183C2.61694 23.8291 2.64331 24.142 2.68373 24.4997C2.71762 24.798 2.75355 25.1021 2.80004 25.3759C2.84583 25.6952 2.90071 26.024 2.96946 26.3166C3.09571 26.9883 3.25893 27.6525 3.4584 28.3062V28.3215C3.52968 28.5511 3.59999 28.78 3.67011 28.9833C3.81348 29.4455 3.97989 29.9003 4.16871 30.3459C4.24039 30.524 4.31665 30.6968 4.39409 30.8722L4.45063 30.9992C4.54975 31.2239 4.64818 31.4391 4.74544 31.6325C4.90676 31.9807 5.08458 32.3203 5.27032 32.6559C5.38699 32.8699 5.50754 33.0818 5.63192 33.2914C5.92262 33.7823 6.19644 34.2057 6.46 34.5685C7.15546 35.5809 7.93745 36.5311 8.79718 37.4084C8.9666 37.5869 9.13593 37.7566 9.287 37.8906C9.5944 38.1896 9.90991 38.4837 10.2345 38.7549C10.2589 38.7797 10.2853 38.8037 10.3123 38.8259C10.6215 39.0907 10.9395 39.3451 11.2656 39.5887C11.3353 39.6452 11.4082 39.6982 11.4834 39.747C11.7912 39.9831 12.1078 40.2075 12.4324 40.4198C12.4901 40.4592 12.5491 40.4954 12.6106 40.5282C12.8525 40.6986 13.1038 40.8554 13.3632 40.9978C13.584 41.1401 13.8156 41.2656 14.1001 41.4216C14.4087 41.5852 14.7173 41.747 15.008 41.8843C15.2509 42.0064 15.4875 42.1132 15.812 42.2605C16.2187 42.4366 16.6341 42.5954 17.0213 42.735C17.2551 42.8292 17.4977 42.9047 17.7204 42.9722C18.0223 43.0736 18.327 43.1666 18.6341 43.251C18.6828 43.2696 18.7329 43.2841 18.784 43.2945C19.0009 43.3545 19.2078 43.4071 19.4255 43.4501L19.4548 43.4578C19.6624 43.5154 19.873 43.5623 20.0855 43.5978C20.1999 43.633 20.317 43.6583 20.4356 43.6741C20.6542 43.7206 20.8811 43.7587 21.126 43.7908C21.8048 43.9035 22.4891 43.9805 23.1759 44.0216C23.3125 44.0307 23.4506 44.0349 23.5623 44.0384C23.9015 44.057 24.2402 44.0654 24.5736 44.0654C24.9066 44.0654 25.2514 44.0571 25.5394 44.0403C25.6858 44.0403 25.8343 44.0307 25.9632 44.0216C26.6613 43.9796 27.3563 43.9015 28.0459 43.7866C28.2636 43.7545 28.4884 43.7206 28.707 43.6741C28.7982 43.6645 28.8881 43.6458 28.9759 43.618C29.2189 43.5714 29.4534 43.523 29.6877 43.4579L29.717 43.4501C29.9221 43.4085 30.1257 43.3594 30.3273 43.3029C30.3745 43.2937 30.4208 43.2801 30.4655 43.2621C30.7901 43.1774 31.1063 43.0783 31.3977 42.9791C31.6419 42.9047 31.884 42.8292 32.0908 42.7452C32.505 42.5953 32.9204 42.4366 33.4026 42.2265C33.6516 42.1132 33.8882 42.0064 34.1136 41.8927C34.4218 41.747 34.7305 41.5852 35.094 41.3937C35.3235 41.269 35.5551 41.1393 35.7279 41.031C36.0032 40.8785 36.2705 40.7118 36.5286 40.5317C36.587 40.5002 36.6436 40.4657 36.6983 40.4283C37.0255 40.2143 37.3447 39.9882 37.655 39.7504C37.7369 39.6983 37.8158 39.6418 37.8915 39.5811C38.2142 39.3473 38.5209 39.0955 38.8234 38.8354C38.8498 38.8125 38.8761 38.7896 38.8996 38.766C39.2169 38.4969 39.5244 38.2165 39.8216 37.9252C39.8327 37.9157 39.8422 37.905 39.8522 37.8948L39.859 37.8886C40.0213 37.7413 40.178 37.5879 40.3286 37.4287C41.1873 36.5532 41.9687 35.6051 42.6638 34.5949C42.9392 34.2153 43.2131 33.7915 43.5065 33.2956C43.628 33.0885 43.7468 32.8798 43.8631 32.6697C44.0512 32.3305 44.2293 31.9914 44.38 31.6638C44.4876 31.4482 44.586 31.2331 44.6851 31.0084L44.742 30.8815C44.819 30.7059 44.8953 30.5332 44.9621 30.3672C45.1497 29.9265 45.3145 29.4764 45.456 29.0188C45.5358 28.7891 45.6064 28.5603 45.6765 28.3333L45.6815 28.3154C45.879 27.6724 46.0408 27.019 46.1663 26.3582C46.2399 26.0385 46.2952 25.7098 46.3356 25.4133C46.3764 25.1165 46.4207 24.8122 46.4611 24.4692C46.4977 24.1564 46.5241 23.8437 46.5409 23.5515C46.5569 23.3566 46.5653 23.1617 46.5749 22.9667V22.8725C46.5832 22.5936 46.5916 22.3225 46.5916 22.0421C46.5916 21.7617 46.6019 21.4835 46.5935 21.2047ZM42.4952 22.0352L44.5673 18.3068C44.6089 18.5168 44.6519 18.7304 44.6825 18.9508C44.7267 19.2167 44.7572 19.4906 44.7934 19.8033C44.8258 20.0837 44.8503 20.3652 44.8671 20.665C44.8823 20.8398 44.89 21.014 44.8995 21.2582C44.9079 21.521 44.9155 21.775 44.9155 22.0387C44.9155 22.3023 44.9079 22.5566 44.8976 22.8863C44.8905 23.0673 44.88 23.2481 44.8664 23.4286C44.8491 23.7254 44.8231 24.0215 44.7885 24.3167C44.7573 24.5837 44.7267 24.8572 44.6782 25.1463C44.6493 25.3447 44.6081 25.5556 44.5665 25.7665L42.4952 22.0352ZM40.8732 9.86667C41.0444 10.0958 41.2112 10.3283 41.3734 10.5639C41.6175 10.913 41.8437 11.2777 42.0566 11.6308C42.1706 11.8285 42.2851 12.025 42.3953 12.2241C42.5646 12.5284 42.7234 12.8324 42.8794 13.1674C42.9751 13.3588 43.0625 13.5504 43.1494 13.7494L43.207 13.8792C43.2768 14.0367 43.3462 14.1908 43.4157 14.362C43.5868 14.7696 43.7384 15.1851 43.8699 15.6071C43.9027 15.7043 43.9324 15.8036 43.9638 15.9012L41.0266 21.188H33.551L31.4324 17.3748L29.7842 14.4086L31.4316 11.4429L33.5503 7.62948H38.9253C38.9939 7.69735 39.0618 7.75838 39.1346 7.83552C39.7616 8.47055 40.3426 9.14931 40.8733 9.86667H40.8732ZM28.3157 28.8149H20.8397L18.7211 25.0014L17.0732 22.0353L18.7203 19.0696L20.8389 15.2561H28.3149L30.4335 19.0695L32.0825 22.0353L30.4351 25.0014L28.3157 28.8149ZM32.713 3.3924C32.9407 3.49571 33.1578 3.59219 33.3966 3.71269C33.6842 3.84814 33.9696 3.9992 34.2976 4.17205C34.4899 4.27614 34.6848 4.37955 34.9197 4.52789C35.1583 4.66004 35.3894 4.8052 35.6121 4.96273C35.6457 4.98636 35.7398 5.04329 35.7772 5.06194C36.0808 5.26029 36.3766 5.4705 36.6637 5.69208C36.6984 5.71845 36.7854 5.78485 36.8235 5.80575C36.8346 5.81415 36.8956 5.86258 36.9086 5.8702C36.9372 5.89119 36.9636 5.91678 36.9932 5.93816H33.551L31.9696 3.0848C32.2095 3.17639 32.4536 3.27366 32.713 3.3924ZM19.9168 2.24207C20.1068 2.18865 20.2957 2.15243 20.5737 2.09403C20.6011 2.08524 20.6298 2.0788 20.6584 2.0746C20.6927 2.07118 20.727 2.06581 20.7609 2.05819C20.954 2.01513 21.1542 1.98652 21.4132 1.94833C22.0365 1.84496 22.6647 1.77442 23.2953 1.73702C23.3956 1.73057 23.5021 1.72296 23.6802 1.71944C23.8583 1.71592 24.0319 1.70577 24.2734 1.70343C24.3733 1.69737 24.482 1.69737 24.5778 1.69737C24.6736 1.69737 24.7826 1.69737 24.942 1.70577C25.1183 1.70577 25.2938 1.70577 25.5436 1.72296C25.6512 1.72296 25.758 1.73057 25.8625 1.73819C26.5139 1.77721 27.1627 1.85068 27.8063 1.95829C27.9994 1.98652 28.1997 2.01513 28.3926 2.05819C28.4266 2.06581 28.461 2.07118 28.4953 2.0746C28.5525 2.08417 28.6089 2.09745 28.6646 2.11424C28.8622 2.15243 29.051 2.18865 29.241 2.24207L29.2681 2.2489C29.2997 2.25965 29.3317 2.26804 29.3646 2.27449C29.4492 2.29129 29.5344 2.31609 29.619 2.3363L32.0824 6.78167L31.3977 8.01501L28.3156 13.5612H20.8396L17.7577 8.01374L17.0732 6.78167L19.5389 2.33708C19.6235 2.31687 19.7085 2.29207 19.7933 2.27527C19.826 2.26903 19.8582 2.26048 19.8898 2.24969L19.9168 2.24207ZM12.3748 5.75976C12.4129 5.73886 12.4496 5.71513 12.4843 5.68847C12.7724 5.46485 13.0672 5.25744 13.4292 5.02249C13.4663 5.00404 13.502 4.98286 13.536 4.95911C13.7745 4.79115 14.022 4.63644 14.2775 4.49566C14.4629 4.37584 14.6578 4.27253 14.8909 4.14627C15.1781 3.99559 15.4638 3.84452 15.767 3.70068C15.9898 3.58858 16.2068 3.4921 16.4884 3.36164C16.7093 3.26594 16.9458 3.1804 17.1773 3.09115L15.6045 5.93445H12.1563C12.1944 5.90555 12.2283 5.87762 12.268 5.84979L12.3748 5.75976ZM5.29551 15.5814C5.41757 15.1867 5.56327 14.7885 5.74568 14.3517C5.81013 14.1925 5.87946 14.0385 5.94889 13.8806L6.00651 13.7508C6.09117 13.5517 6.1813 13.3602 6.28803 13.1459C6.43295 12.8343 6.59202 12.5298 6.7633 12.2212C6.87013 12.0249 6.98458 11.8284 7.09209 11.6419C7.31142 11.2776 7.53807 10.9129 7.786 10.5589C7.94743 10.323 8.11363 10.0904 8.28451 9.8612C8.81407 9.14695 9.39313 8.47078 10.0174 7.83767C10.0842 7.77088 10.1605 7.69803 10.2299 7.62938H15.6046L17.7227 11.4427L19.371 14.4085L17.7239 17.3747L15.6053 21.1879H8.12856L5.18634 15.8923C5.21768 15.7958 5.25166 15.6951 5.29551 15.5814ZM4.58793 25.7639C4.54633 25.5537 4.50327 25.3401 4.4727 25.12C4.42876 24.8538 4.39829 24.5802 4.36167 24.2675C4.32873 23.981 4.30418 23.6936 4.28804 23.4057C4.27359 23.236 4.26519 23.0575 4.25562 22.8126C4.24722 22.5532 4.23961 22.2988 4.23961 22.0353C4.23961 21.7716 4.24722 21.5176 4.25758 21.188C4.26519 21.0126 4.27281 20.8379 4.28882 20.6441C4.30484 20.3633 4.32964 20.0821 4.36665 19.7557C4.39829 19.4891 4.42886 19.2151 4.4769 18.926C4.5059 18.728 4.5475 18.5168 4.58871 18.3058L6.65989 22.0352L4.58793 25.7639ZM7.85045 33.5958C7.60632 33.2566 7.35985 32.8779 7.09903 32.4366C6.98334 32.2404 6.87028 32.0427 6.75988 31.8434C6.59056 31.5391 6.43178 31.2351 6.27622 30.9001C6.18052 30.7086 6.09312 30.5171 6.00573 30.318L5.94811 30.1883C5.87878 30.0307 5.80935 29.8763 5.73953 29.7054C5.56833 29.2979 5.41683 28.8824 5.28555 28.4603C5.25235 28.3631 5.22266 28.2638 5.19132 28.1662L8.12856 22.8828H15.6045L17.7228 26.6961L19.3709 29.6619L17.7239 32.6281L15.6053 36.4413H10.2291C10.1613 36.3735 10.0938 36.3124 10.0224 36.2381C9.22349 35.4223 8.49679 34.5387 7.85045 33.5973V33.5958ZM16.4426 40.6827C16.2152 40.5794 15.9986 40.4818 15.7568 40.3608C15.4695 40.2258 15.1841 40.0751 14.8569 39.9023C14.6646 39.7978 14.4697 39.6944 14.2352 39.5464C13.9969 39.4142 13.766 39.269 13.5436 39.1115C13.5077 39.0871 13.4162 39.0318 13.3738 39.0124C13.0706 38.8132 12.7757 38.6058 12.4877 38.3819C12.4545 38.3567 12.3622 38.288 12.3256 38.2666C12.3146 38.259 12.2554 38.2118 12.2409 38.2041C12.2123 38.1827 12.186 38.1576 12.1563 38.1362H15.6011L17.1822 40.9868C16.951 40.8944 16.7016 40.7972 16.4426 40.6827ZM29.2383 41.8282C29.0487 41.8817 28.8595 41.9183 28.5819 41.9766C28.554 41.9854 28.5257 41.9919 28.4968 41.9961C28.4625 41.9995 28.4281 42.0049 28.3946 42.0121C28.2012 42.0556 28.0012 42.0842 27.7419 42.1223C27.1187 42.2255 26.4905 42.2959 25.8599 42.3332C25.7599 42.3401 25.653 42.3479 25.4997 42.3485C24.8714 42.3829 24.2418 42.3829 23.6135 42.3485C23.5055 42.3485 23.3987 42.3409 23.2946 42.3333C22.6432 42.2943 21.9943 42.2209 21.3507 42.1132C21.1574 42.0849 20.9575 42.0564 20.7644 42.0132C20.7306 42.0057 20.6964 42.0002 20.6619 41.9968C20.6045 41.9872 20.5477 41.974 20.492 41.9572C20.2948 41.9191 20.1057 41.8828 19.916 41.8293L19.889 41.8225C19.8573 41.8119 19.8249 41.8033 19.7921 41.7969C19.7074 41.7802 19.6228 41.7554 19.538 41.7352L17.0731 37.2886L17.7578 36.0557L20.8396 30.5095H28.3156L31.3977 36.0565L32.0824 37.2886L29.6163 41.7336C29.5316 41.7539 29.447 41.7783 29.3623 41.7955C29.3295 41.8016 29.2971 41.81 29.2654 41.8206L29.2383 41.8282ZM36.7746 38.3124C36.7372 38.3329 36.7022 38.3559 36.6686 38.3818C36.3806 38.6058 36.0854 38.8133 35.7287 39.0448C35.6898 39.0643 35.652 39.0868 35.6162 39.1115C35.3779 39.2794 35.1306 39.4342 34.8754 39.5751C34.69 39.6944 34.495 39.7977 34.262 39.9233C33.9755 40.0751 33.6898 40.2258 33.3847 40.3699C33.1611 40.4818 32.9441 40.5794 32.6645 40.7091C32.4433 40.8048 32.2068 40.8902 31.9756 40.9791L33.551 38.1362H36.9989C36.9608 38.1652 36.9268 38.193 36.8871 38.2208L36.7746 38.3124ZM43.8605 28.4893C43.7384 28.8841 43.5926 29.2823 43.4107 29.7187C43.3462 29.8782 43.2769 30.0322 43.207 30.1898L43.1494 30.3195C43.0647 30.5187 42.9751 30.7101 42.8682 30.9249C42.7233 31.2364 42.5639 31.5409 42.3927 31.8491C42.2862 32.046 42.1718 32.2424 42.0607 32.4339C41.7964 32.8798 41.5523 33.2601 41.2978 33.6145C40.6512 34.5538 39.9245 35.4353 39.1259 36.2492C39.0648 36.3132 39.0023 36.377 38.9378 36.4414H33.551L31.4324 32.6281L29.7842 29.6619L31.4316 26.6961L33.5503 22.8828H41.0259L43.9615 28.1674C43.9291 28.2738 43.8985 28.373 43.8597 28.4893H43.8605Z" fill="#2C3E50"/>
</g>
<defs>
<clipPath id="clip0_5_135">
<rect width="50" height="50" fill="white"/>
</clipPath>
</defs>
</svg>
